<?xml version="1.0" encoding="UTF-8"?>
<svg width="9px" height="7px" viewBox="0 0 9 7" version="1.1" xmlns="http://www.w3.org/2000/svg" xmlns:xlink="http://www.w3.org/1999/xlink">
    <!-- Generator: Sketch 44.1 (41455) - http://www.bohemiancoding.com/sketch -->
    <title>P</title>
    <desc>Created with Sketch.</desc>
    <defs></defs>
    <g id="Page-1" stroke="none" stroke-width="1" fill="none" fill-rule="evenodd">
        <path d="M8.80664062,0.4765625 C8.67773373,0.347655605 8.5253915,0.283203125 8.34960938,0.283203125 C8.17382725,0.283203125 8.02734434,0.347655605 7.91015625,0.4765625 L3.21679688,5.16992188 L1.08984375,3.04296875 C0.972655664,2.92578066 0.826172754,2.8671875 0.650390625,2.8671875 C0.474608496,2.8671875 0.32226627,2.92578066 0.193359375,3.04296875 C0.0644524805,3.17187564 0,3.32421787 0,3.5 C0,3.67578213 0.0644524805,3.82812436 0.193359375,3.95703125 L2.75976562,6.5234375 C2.88867252,6.65234439 3.04101475,6.71679688 3.21679688,6.71679688 C3.392579,6.71679688 3.53906191,6.65234439 3.65625,6.5234375 L8.80664062,1.37304688 C8.93554752,1.24413998 9,1.09472741 9,0.924804688 C9,0.754881963 8.93554752,0.605469395 8.80664062,0.4765625 Z" id="P" fill="#2F333D"></path>
    </g>
</svg>